PathFileType	4	(X/Y/Z)	/Users/niels/Desktop/University/Third Semester/Perception and Action/Exam/Gymnastics Motion Tracking/Code for Gym Tracking/Scripts/Analyzed Data/Start Salto/st_salto_good_id12_1_Sports2D/st_salto_good_id12_1_Sports2D_px_person00.trc
DataRate	CameraRate	NumFrames	NumMarkers	Units	OrigDataRate	OrigDataStartFrame	OrigNumFrames
29.83050847457627	29.83050847457627	7	22	m	29.83050847457627	110	177
Frame#	Time	Hip			RHip			RKnee			RAnkle			RBigToe			RSmallToe			RHeel			LHip			LKnee			LAnkle			LBigToe			LSmallToe			LHeel			Neck			Head			Nose			RShoulder			RElbow			RWrist			LShoulder			LElbow			LWrist		
		X1	Y1	Z1	X2	Y2	Z2	X3	Y3	Z3	X4	Y4	Z4	X5	Y5	Z5	X6	Y6	Z6	X7	Y7	Z7	X8	Y8	Z8	X9	Y9	Z9	X10	Y10	Z10	X11	Y11	Z11	X12	Y12	Z12	X13	Y13	Z13	X14	Y14	Z14	X15	Y15	Z15	X16	Y16	Z16	X17	Y17	Z17	X18	Y18	Z18	X19	Y19	Z19	X20	Y20	Z20	X21	Y21	Z21	X22	Y22	Z22
110	3.6875	1.4553880045146814	-0.3812750204729681	0.0	1.46519487407303	-0.3675145478955059	0.0	1.6269830927682367	-0.3832190138981643	0.0	1.7469577500253926	-0.49589943270986053	0.0	1.82194866701802	-0.48344719434814065	0.0	1.8173069102111787	-0.4943399411657601	0.0	1.7523581837449944	-0.5187614411023606	0.0	1.4606740844100121	-0.3934492747220688	0.0	1.5878229067298262	-0.43940289133287036	0.0	1.6198272084688974	-0.5839232126752468	0.0	1.679657084681258	-0.6105661906912017	0.0	1.6740910955471457	-0.6118073985421828	0.0	1.6188631424082218	-0.605928216638653	0.0	1.2830180964789675	-0.28938746573408836	0.0	1.2565238047364862	-0.20988466215291296	0.0	1.3037367404980116	-0.23799266198102506	0.0	1.2772296881947527	-0.3026612526975098	0.0	1.2560058995963768	-0.33943797669216924	0.0	1.2980931390009594	-0.25393374592888696	0.0	1.2913313668392057	-0.31099038802436296	0.0	1.3094958188504957	-0.3496642360381194	0.0	1.3080554261295754	-0.2885540684600202	0.0
111	3.7210227272727274	1.4666063895114594	-0.38622186832103994	0.0	1.478026967731084	-0.3720912534259884	0.0	1.639272080960222	-0.4001139408099855	0.0	1.7530075044285969	-0.5204499072829457	0.0	1.8260589525005304	-0.5159482632907295	0.0	1.822086489559837	-0.5252483328471977	0.0	1.7574530497903127	-0.5436625451270706	0.0	1.4712733709187396	-0.398754932349778	0.0	1.5931184150405593	-0.45902854330316256	0.0	1.622501774952246	-0.6040587626208325	0.0	1.6794499222823505	-0.6317960363492725	0.0	1.6727692924108628	-0.6340722134905381	0.0	1.6212965823850813	-0.6270471734102316	0.0	1.297338966252103	-0.28742990001822943	0.0	1.2722226569154085	-0.21066849296861123	0.0	1.3176014147375141	-0.2387247346896188	0.0	1.2927488704756902	-0.3002077324180897	0.0	1.2612738886683894	-0.3482865535408658	0.0	1.3138511327083389	-0.2572405045025064	0.0	1.3026089516309576	-0.30905054353276484	0.0	1.314456486407512	-0.35076016215842226	0.0	1.3209584611405203	-0.28789113955499657	0.0
112	3.754545454545455	1.4777106746271225	-0.3921366123000511	0.0	1.4911866588232312	-0.3770281005912278	0.0	1.6507275289164285	-0.4168729846665387	0.0	1.7577213245025327	-0.5436762277106628	0.0	1.828311860585402	-0.5467903493738518	0.0	1.8254499322490891	-0.5542965616481034	0.0	1.7612575745196828	-0.5668935516094055	0.0	1.4808642968318195	-0.40582873477246506	0.0	1.5971182797838934	-0.4781925964516515	0.0	1.6246696132816747	-0.6234031072968875	0.0	1.6800742472046455	-0.6526959497324516	0.0	1.6715852842127876	-0.6557519337078987	0.0	1.6228018768087173	-0.6472198558771911	0.0	1.311969526894825	-0.2864487310953538	0.0	1.2878860829953256	-0.21113725767025704	0.0	1.332013804451989	-0.23930590611727443	0.0	1.310583123090262	-0.2977270761705493	0.0	1.268280369476303	-0.35503833246377614	0.0	1.329770927668235	-0.2613351934078888	0.0	1.3123952893693984	-0.30997016320174553	0.0	1.3109262451766548	-0.35369830774665517	0.0	1.329860752284204	-0.2887452390327102	0.0
113	3.788068181818182	1.488617736397893	-0.3987249124223949	0.0	1.5044638193714628	-0.38247200899728034	0.0	1.6612511273653934	-0.43332279227491244	0.0	1.7612746945626248	-0.5654856761161283	0.0	1.8294160638398684	-0.5755112029908135	0.0	1.827788341682291	-0.5810766934807406	0.0	1.7638915147546004	-0.588353620811831	0.0	1.4897896426953952	-0.4141687217642715	0.0	1.6002508965806876	-0.4963508668176007	0.0	1.626219109710144	-0.6414004606505791	0.0	1.6814394689041072	-0.6734475624391351	0.0	1.670744712311825	-0.6768569733600908	0.0	1.6232791605060999	-0.6657909077271508	0.0	1.3265229550829196	-0.2866267227552183	0.0	1.303722959482939	-0.2112968485452185	0.0	1.347019176799535	-0.2398517510524457	0.0	1.3294560312096637	-0.2958452250377338	0.0	1.2778911057757358	-0.359402470387932	0.0	1.3456068743359666	-0.2661137579454757	0.0	1.3210072036276905	-0.3134101526822145	0.0	1.301334676967683	-0.35811520383380907	0.0	1.334847728567886	-0.29254454426286075	0.0
114	3.8215909090909093	1.4992178036222874	-0.40564043088675084	0.0	1.5173651200631662	-0.38852577764357504	0.0	1.670811245893933	-0.449367350434253	0.0	1.7640095515279917	-0.5861038298155025	0.0	1.8300480940718764	-0.6020799052663679	0.0	1.8293971081882525	-0.6057585892146359	0.0	1.7656307740827932	-0.6083858059789319	0.0	1.4982362642486426	-0.4229885417955392	0.0	1.6028458071006542	-0.5132452119053168	0.0	1.6270327732574787	-0.6577391632934133	0.0	1.6826895349529993	-0.6937711748100239	0.0	1.6698588745160732	-0.6971029533932104	0.0	1.622756837244496	-0.6823591898369379	0.0	1.3408249024389132	-0.28820580697708087	0.0	1.3200490698001064	-0.21124130146921244	0.0	1.3628926043125131	-0.2408398777552396	0.0	1.3476785039817734	-0.2953213316138224	0.0	1.2904320082403424	-0.36177906539667637	0.0	1.3614762778302738	-0.2715135367094549	0.0	1.329332133843332	-0.3182993347890433	0.0	1.2917422474525029	-0.36314679842726977	0.0	1.3376493386709043	-0.2997712220880396	0.0
115	3.8551136363636362	1.5094395061447916	-0.4126950664076594	0.0	1.5294245928741412	-0.3951897512072536	0.0	1.6795061790541013	-0.4651043373542752	0.0	1.7662465851201794	-0.6059894370437272	0.0	1.8305764404889662	-0.6268095344270325	0.0	1.8304546779564552	-0.6289694919739345	0.0	1.7667369517782647	-0.6276674331915767	0.0	1.5060949010890772	-0.4316478720153488	0.0	1.605088656449166	-0.5290694168188761	0.0	1.6271220388925016	-0.6726858420283351	0.0	1.682808536995755	-0.7131357468415038	0.0	1.6682551028062609	-0.7160838274047557	0.0	1.6215074317666838	-0.6971128659897147	0.0	1.35519519917606	-0.29121504428116257	0.0	1.3372541567497902	-0.2110794732351676	0.0	1.3799962942391129	-0.24281921131259127	0.0	1.3643591611060568	-0.2964927926632229	0.0	1.3059352664645123	-0.36278031630918617	0.0	1.3778722117468547	-0.2775079312731732	0.0	1.3384530222378244	-0.32352173376848137	0.0	1.2872504226797945	-0.36806705970115355	0.0	1.3404646481487967	-0.30991332019568985	0.0
116	3.8886363636363637	1.5193558146145099	-0.41994605525820244	0.0	1.5405828431573743	-0.40245460103456443	0.0	1.6875728686520985	-0.4808049154689527	0.0	1.7681202033544876	-0.6256883018870798	0.0	1.8310937853914233	-0.6503647347476526	0.0	1.8310751225546529	-0.6516105255331557	0.0	1.7673259033974857	-0.6469775202489597	0.0	1.513392466098728	-0.4398586493305332	0.0	1.607131503477376	-0.5443014045927554	0.0	1.6266337128477153	-0.687068396572436	0.0	1.6813818867426162	-0.7312751619114866	0.0	1.665599162574652	-0.7336121523334571	0.0	1.6199070465725356	-0.7108873512619176	0.0	1.3702753042199474	-0.2952004607749269	0.0	1.3557485443098678	-0.21091709542422973	0.0	1.3985251022563552	-0.2459528637222535	0.0	1.3798069617694433	-0.2990157353528171	0.0	1.324369084828932	-0.36295781947863154	0.0	1.3955750608580193	-0.2841544953484038	0.0	1.3492841684684351	-0.3282942686807774	0.0	1.2896086279315895	-0.37257699527148674	0.0	1.345162524187808	-0.32181505763457324	0.0
